<svg width="16" height="17" viewBox="0 0 16 17" fill="none" xmlns="http://www.w3.org/2000/svg">
<path d="M1.33331 9.05332V10.5C1.33331 13.8333 2.66665 15.1666 5.99998 15.1666H9.99998C13.3333 15.1666 14.6666 13.8333 14.6666 10.5V6.49998C14.6666 3.16665 13.3333 1.83331 9.99998 1.83331H5.99998C2.66665 1.83331 1.33331 3.16665 1.33331 6.49998" stroke="black" stroke-linecap="round" stroke-linejoin="round"/>
<path d="M6.73997 7.93335H4.97331C4.55331 7.93335 4.21332 8.27332 4.21332 8.69332V12.1066H6.73997V7.93335V7.93335Z" stroke="black" stroke-miterlimit="10" stroke-linecap="round" stroke-linejoin="round"/>
<path d="M8.50667 4.89996H7.49333C7.07333 4.89996 6.73334 5.23997 6.73334 5.65997V12.1H9.26001V5.65997C9.26001 5.23997 8.92667 4.89996 8.50667 4.89996Z" stroke="black" stroke-miterlimit="10" stroke-linecap="round" stroke-linejoin="round"/>
<path d="M11.0333 9.06665H9.26666V12.1H11.7933V9.82666C11.7867 9.40666 11.4467 9.06665 11.0333 9.06665Z" stroke="black" stroke-miterlimit="10" stroke-linecap="round" stroke-linejoin="round"/>
</svg>
