<svg width="326" height="239" viewBox="0 0 326 239" fill="none" xmlns="http://www.w3.org/2000/svg">
<path d="M321.871 238.183C310.251 238.363 298.361 238.293 287.021 238.313C283.901 238.313 282.061 234.953 284.361 232.603C289.388 227.497 294.588 222.293 299.961 216.993C300.24 216.718 300.461 216.389 300.613 216.027C300.764 215.665 300.841 215.276 300.841 214.883L300.811 111.803C300.805 110.057 301.595 108.817 303.181 108.083C303.581 107.897 303.998 107.837 304.431 107.903C306.605 108.25 307.691 109.523 307.691 111.723L307.661 215.053C307.661 215.688 307.913 216.299 308.361 216.753L324.151 232.543C324.609 233.004 324.921 233.589 325.05 234.225C325.179 234.862 325.118 235.522 324.875 236.123C324.632 236.724 324.217 237.24 323.683 237.607C323.149 237.973 322.519 238.174 321.871 238.183ZM295.401 230.923C295.346 230.977 295.307 231.047 295.291 231.122C295.275 231.198 295.282 231.277 295.311 231.349C295.34 231.421 295.39 231.483 295.454 231.526C295.518 231.57 295.594 231.593 295.671 231.593L312.651 231.613C312.728 231.613 312.802 231.59 312.866 231.548C312.929 231.506 312.979 231.446 313.009 231.376C313.039 231.305 313.047 231.228 313.033 231.153C313.02 231.078 312.984 231.008 312.931 230.953L304.461 222.433C304.425 222.396 304.381 222.366 304.333 222.346C304.285 222.325 304.233 222.315 304.181 222.315C304.129 222.315 304.077 222.325 304.029 222.346C303.981 222.366 303.938 222.396 303.901 222.433L295.401 230.923Z" fill="white"/>
<path d="M49.9913 170.183L162.071 230.283C162.255 230.382 162.461 230.434 162.67 230.434C162.879 230.434 163.086 230.382 163.271 230.283L275.551 170.073C275.785 169.947 275.901 169.75 275.901 169.483C275.881 157.977 275.891 145.8 275.931 132.953C275.938 130.653 277.185 129.443 279.671 129.323C279.711 129.317 279.768 129.317 279.841 129.323C282.328 129.603 283.578 130.917 283.591 133.263C283.638 146.157 283.641 159.127 283.601 172.173C283.602 172.901 283.405 173.616 283.031 174.241C282.658 174.866 282.122 175.378 281.481 175.723C243.008 196.35 204.488 217 165.921 237.673C164.111 238.643 162.661 239.403 160.721 238.363C121.815 217.483 82.8946 196.6 43.9613 175.713C42.1413 174.733 41.6413 173.083 41.6613 171.133C41.8079 157.467 41.8413 144.847 41.7613 133.273C41.7313 128.093 49.4413 127.643 49.4613 133.363C49.5079 145.21 49.5146 157.193 49.4813 169.313C49.4815 169.492 49.5289 169.668 49.6186 169.821C49.7083 169.974 49.837 170.099 49.9913 170.183Z" fill="white"/>
<path fill-rule="evenodd" clip-rule="evenodd" d="M323.321 85.7234L164.311 0.433365C163.783 0.148902 163.192 0 162.591 0C161.991 0 161.4 0.148902 160.871 0.433365L1.91127 85.7034C1.3327 86.0144 0.84937 86.4765 0.512784 87.0406C0.176198 87.6047 -0.00102191 88.2495 4.43269e-06 88.9064C0.00103077 89.5632 0.180265 90.2075 0.518613 90.7705C0.85696 91.3335 1.34174 91.7942 1.92127 92.1034L160.771 177.263C161.297 177.544 161.885 177.691 162.481 177.691C163.078 177.691 163.665 177.544 164.191 177.263L323.321 92.1234C323.9 91.8133 324.384 91.3518 324.722 90.7883C325.059 90.2248 325.238 89.5802 325.238 88.9234C325.238 88.2665 325.059 87.622 324.722 87.0584C324.384 86.4949 323.9 86.0335 323.321 85.7234ZM174.855 33.6892C174.855 41.0545 168.884 47.0251 161.519 47.0251C154.154 47.0251 148.183 41.0545 148.183 33.6892C148.183 26.324 154.154 20.3534 161.519 20.3534C168.884 20.3534 174.855 26.324 174.855 33.6892ZM161.163 84.8705L156.88 80.5762L126.126 49.6887C126.064 49.6263 126.016 49.5521 125.984 49.4705C125.952 49.3889 125.937 49.3017 125.94 49.2141C125.943 49.1266 125.963 49.0405 126 48.9611C126.038 48.8818 126.09 48.8108 126.156 48.7525C131.833 43.7153 141.267 42.598 147.531 47.5748C148.715 48.517 149.912 49.4692 151.124 50.4316C155.974 54.291 162.165 55.0762 168.132 53.1918C168.223 53.1303 168.304 53.0936 168.374 53.0817C170.146 52.2582 171.702 51.1896 173.043 49.8759C177.275 45.7165 181.319 41.692 185.177 37.8024C185.238 37.7409 185.311 37.6927 185.391 37.661C185.471 37.6292 185.557 37.6146 185.644 37.618C185.73 37.6214 185.815 37.6428 185.893 37.6808C185.97 37.7188 186.039 37.7725 186.095 37.8386C189.244 41.5108 190.723 45.5051 190.534 49.8216C190.274 55.6077 187.647 59.298 183.498 63.387C177.45 69.3462 171.485 75.2572 165.602 81.1198C164.301 82.4164 163.16 83.6525 162.177 84.8283C162.117 84.9017 162.041 84.9615 161.956 85.0039C161.87 85.0462 161.777 85.0701 161.681 85.0741C161.586 85.0781 161.49 85.062 161.401 85.027C161.311 84.9919 161.23 84.9386 161.163 84.8705ZM199.829 80.4494C196.761 84.5444 196.538 90.8439 197.975 95.5912C198.893 97.7776 199.751 99.2795 200.548 100.097C204.804 104.45 209.165 108.836 213.63 113.258C213.685 113.311 213.728 113.375 213.757 113.445C213.786 113.515 213.8 113.591 213.8 113.667C213.799 113.743 213.784 113.818 213.753 113.888C213.723 113.957 213.679 114.02 213.624 114.073C212.332 115.293 210.78 116.269 208.968 117.002C203.689 119.136 198.758 119.003 194.176 116.604C192.328 115.637 189.801 113.517 186.596 110.244C179.985 103.491 173.331 96.8394 166.635 90.2882C166.545 90.2001 166.475 90.095 166.426 89.9791C166.378 89.8633 166.354 89.739 166.354 89.6135C166.355 89.4881 166.381 89.364 166.43 89.2486C166.479 89.1331 166.551 89.0287 166.641 88.9414L170.844 84.8947L201.623 54.0615C201.671 54.0135 201.728 53.9757 201.791 53.9502C201.854 53.9248 201.921 53.9123 201.989 53.9134C202.057 53.9145 202.125 53.9293 202.187 53.9568C202.25 53.9843 202.307 54.024 202.354 54.0736C205.756 57.7015 207.25 62.1528 206.836 67.4276C206.462 72.1151 204.175 74.9717 201.619 78.1628C201.03 78.8984 200.427 79.6517 199.829 80.4494ZM152.701 94.1839L157.086 90.0466C157.158 89.9792 157.214 89.8959 157.25 89.8033C157.285 89.7106 157.298 89.6111 157.289 89.5125C157.28 89.4138 157.248 89.3186 157.196 89.2342C157.144 89.1499 157.073 89.0786 156.989 89.0259C156.421 88.6635 155.886 88.2327 155.382 87.7334C148.956 81.3876 142.564 75.0075 136.206 68.5933C135.973 68.3581 135.741 68.1221 135.51 67.8866C133.685 66.03 131.89 64.2045 129.768 63.0306C124.831 60.2926 119.73 59.9825 114.463 62.1005C113.455 62.5059 112.491 63.1449 111.53 63.7815C111.017 64.1217 110.505 64.4612 109.987 64.764C109.88 64.8272 109.789 64.9136 109.72 65.0169C109.651 65.1202 109.606 65.2377 109.589 65.3607C109.571 65.4837 109.582 65.609 109.619 65.7274C109.657 65.8457 109.721 65.9541 109.806 66.0445L125.123 82.3217C126.017 85.696 126.436 88.0616 126.379 89.4185C126.214 93.3887 124.962 96.9038 122.623 99.964C121.628 101.269 120.65 102.569 119.687 103.866C115.995 108.855 115.353 114.363 117.761 120.391C118.393 121.973 119.397 123.541 120.774 125.096C120.836 125.165 120.911 125.221 120.995 125.26C121.079 125.299 121.17 125.321 121.263 125.324C121.356 125.327 121.448 125.311 121.534 125.276C121.621 125.242 121.699 125.191 121.765 125.126L152.701 94.1839ZM105.826 102.507C113.251 102.507 119.27 96.4874 119.27 89.0622C119.27 81.6369 113.251 75.6176 105.826 75.6176C98.4006 75.6176 92.3813 81.6369 92.3813 89.0622C92.3813 96.4874 98.4006 102.507 105.826 102.507ZM231.381 89.1528C231.381 96.5513 225.384 102.549 217.985 102.549C210.586 102.549 204.589 96.5513 204.589 89.1528C204.589 81.7542 210.586 75.7565 217.985 75.7565C225.384 75.7565 231.381 81.7542 231.381 89.1528Z" fill="white"/>
</svg>
