<svg width="198" height="196" viewBox="0 0 198 196" fill="none" xmlns="http://www.w3.org/2000/svg">
<path d="M4.35411 192.121C12.3856 192.13 22.4913 187.688 27.7379 181.818C33.5042 175.366 35.376 165.162 35.9602 156.817C36.304 151.906 36.2135 145.147 32.2455 141.494C26.5498 136.25 22.6307 150.331 22.7066 153.906C22.9385 164.839 36.1369 165.345 44.1239 163.761C61.342 160.347 74.4877 146.721 81.4581 131.022C84.2447 124.746 85.6059 118.095 84.1562 111.298C84.0771 110.927 83.2713 107.28 82.0974 107.895C77.09 110.514 82.6425 119.384 85.0895 121.721C93.3791 129.639 104.938 126.933 114.263 122.43C121.298 119.033 127.33 114.534 132.353 108.524C138.207 101.52 145.079 92.4756 146.558 83.1912C146.976 80.5674 146.925 70.8401 142.254 74.6688C138.047 78.1167 140.197 83.4153 142.783 87.3042C149.921 98.0368 163.705 101.929 174.815 94.6682C181.804 90.1008 186.962 81.8423 190.817 74.651C195.795 65.3648 198.778 55.4865 198.438 44.9024C198.342 41.9067 197.967 38.8822 197.267 35.9662C197.081 35.189 196.119 33.0091 196.561 33.6746C198.576 36.7039 199.696 40.3085 201.778 43.3631C206.055 49.6393 212.995 54.3813 220.474 50.563C228.4 46.5168 235.488 39.4042 241.622 33.157C250.568 24.0469 258.28 13.7363 266.279 3.80496" stroke="#734AE5" stroke-width="7" stroke-linecap="round"/>
</svg>
