<svg width="16" height="17" viewBox="0 0 16 17" fill="none" xmlns="http://www.w3.org/2000/svg">
<path d="M14 8.33336H1.99998C1.35998 8.33336 0.833313 7.8067 0.833313 7.1667V4.95336C0.833313 4.50002 1.14663 4.04003 1.56663 3.87336L7.56663 1.47338C7.81996 1.37338 8.18 1.37338 8.43333 1.47338L14.4333 3.87336C14.8533 4.04003 15.1666 4.50669 15.1666 4.95336V7.1667C15.1666 7.8067 14.64 8.33336 14 8.33336ZM7.99998 2.39338C7.97331 2.39338 7.94666 2.39335 7.93333 2.40001L1.93996 4.80004C1.89996 4.82004 1.83331 4.90669 1.83331 4.95336V7.1667C1.83331 7.26003 1.90665 7.33336 1.99998 7.33336H14C14.0933 7.33336 14.1666 7.26003 14.1666 7.1667V4.95336C14.1666 4.90669 14.1067 4.82004 14.06 4.80004L8.06 2.40001C8.04666 2.39335 8.02665 2.39338 7.99998 2.39338Z" fill="black"/>
<path d="M14.6666 15.6667H1.33331C1.05998 15.6667 0.833313 15.44 0.833313 15.1667V13.1667C0.833313 12.5267 1.35998 12 1.99998 12H14C14.64 12 15.1666 12.5267 15.1666 13.1667V15.1667C15.1666 15.44 14.94 15.6667 14.6666 15.6667ZM1.83331 14.6667H14.1666V13.1667C14.1666 13.0733 14.0933 13 14 13H1.99998C1.90665 13 1.83331 13.0733 1.83331 13.1667V14.6667Z" fill="black"/>
<path d="M2.66669 13C2.39335 13 2.16669 12.7733 2.16669 12.5V7.83331C2.16669 7.55998 2.39335 7.33331 2.66669 7.33331C2.94002 7.33331 3.16669 7.55998 3.16669 7.83331V12.5C3.16669 12.7733 2.94002 13 2.66669 13Z" fill="black"/>
<path d="M5.33331 13C5.05998 13 4.83331 12.7733 4.83331 12.5V7.83331C4.83331 7.55998 5.05998 7.33331 5.33331 7.33331C5.60665 7.33331 5.83331 7.55998 5.83331 7.83331V12.5C5.83331 12.7733 5.60665 13 5.33331 13Z" fill="black"/>
<path d="M8 13C7.72667 13 7.5 12.7733 7.5 12.5V7.83331C7.5 7.55998 7.72667 7.33331 8 7.33331C8.27333 7.33331 8.5 7.55998 8.5 7.83331V12.5C8.5 12.7733 8.27333 13 8 13Z" fill="black"/>
<path d="M10.6667 13C10.3934 13 10.1667 12.7733 10.1667 12.5V7.83331C10.1667 7.55998 10.3934 7.33331 10.6667 7.33331C10.94 7.33331 11.1667 7.55998 11.1667 7.83331V12.5C11.1667 12.7733 10.94 13 10.6667 13Z" fill="black"/>
<path d="M13.3333 13C13.06 13 12.8333 12.7733 12.8333 12.5V7.83331C12.8333 7.55998 13.06 7.33331 13.3333 7.33331C13.6066 7.33331 13.8333 7.55998 13.8333 7.83331V12.5C13.8333 12.7733 13.6066 13 13.3333 13Z" fill="black"/>
<path d="M15.3334 15.6667H0.666687C0.393354 15.6667 0.166687 15.44 0.166687 15.1667C0.166687 14.8934 0.393354 14.6667 0.666687 14.6667H15.3334C15.6067 14.6667 15.8334 14.8934 15.8334 15.1667C15.8334 15.44 15.6067 15.6667 15.3334 15.6667Z" fill="black"/>
<path d="M8 6.66669C7.17333 6.66669 6.5 5.99335 6.5 5.16669C6.5 4.34002 7.17333 3.66669 8 3.66669C8.82667 3.66669 9.5 4.34002 9.5 5.16669C9.5 5.99335 8.82667 6.66669 8 6.66669ZM8 4.66669C7.72667 4.66669 7.5 4.89335 7.5 5.16669C7.5 5.44002 7.72667 5.66669 8 5.66669C8.27333 5.66669 8.5 5.44002 8.5 5.16669C8.5 4.89335 8.27333 4.66669 8 4.66669Z" fill="black"/>
</svg>
