<svg width="414" height="414" viewBox="0 0 414 414" fill="none" xmlns="http://www.w3.org/2000/svg">
<circle cx="207" cy="207" r="207" fill="url(#paint0_linear_1_47)"/>
<path d="M365.871 326.183C354.251 326.363 342.361 326.293 331.021 326.313C327.901 326.313 326.061 322.953 328.361 320.603C333.388 315.497 338.588 310.293 343.961 304.993C344.24 304.718 344.461 304.389 344.613 304.027C344.764 303.665 344.841 303.276 344.841 302.883L344.811 199.803C344.805 198.057 345.595 196.817 347.181 196.083C347.581 195.897 347.998 195.837 348.431 195.903C350.605 196.25 351.691 197.523 351.691 199.723L351.661 303.053C351.661 303.688 351.913 304.299 352.361 304.753L368.151 320.543C368.609 321.004 368.921 321.589 369.05 322.225C369.179 322.862 369.118 323.522 368.875 324.123C368.632 324.724 368.217 325.24 367.683 325.607C367.149 325.973 366.519 326.174 365.871 326.183ZM339.401 318.923C339.346 318.977 339.307 319.047 339.291 319.122C339.275 319.198 339.282 319.277 339.311 319.349C339.34 319.421 339.39 319.483 339.454 319.526C339.518 319.57 339.594 319.593 339.671 319.593L356.651 319.613C356.728 319.613 356.802 319.59 356.866 319.548C356.929 319.506 356.979 319.446 357.009 319.376C357.039 319.305 357.047 319.228 357.033 319.153C357.02 319.078 356.984 319.008 356.931 318.953L348.461 310.433C348.425 310.396 348.381 310.366 348.333 310.346C348.285 310.325 348.233 310.315 348.181 310.315C348.129 310.315 348.077 310.325 348.029 310.346C347.981 310.366 347.938 310.396 347.901 310.433L339.401 318.923Z" fill="white"/>
<path d="M93.9913 258.183L206.071 318.283C206.255 318.382 206.461 318.434 206.67 318.434C206.879 318.434 207.086 318.382 207.271 318.283L319.551 258.073C319.785 257.947 319.901 257.75 319.901 257.483C319.881 245.977 319.891 233.8 319.931 220.953C319.938 218.653 321.185 217.443 323.671 217.323C323.711 217.317 323.768 217.317 323.841 217.323C326.328 217.603 327.578 218.917 327.591 221.263C327.638 234.157 327.641 247.127 327.601 260.173C327.602 260.901 327.405 261.616 327.031 262.241C326.658 262.866 326.122 263.378 325.481 263.723C287.008 284.35 248.488 305 209.921 325.673C208.111 326.643 206.661 327.403 204.721 326.363C165.815 305.483 126.895 284.6 87.9613 263.713C86.1413 262.733 85.6413 261.083 85.6613 259.133C85.8079 245.467 85.8413 232.847 85.7613 221.273C85.7313 216.093 93.4413 215.643 93.4613 221.363C93.5079 233.21 93.5146 245.193 93.4813 257.313C93.4815 257.492 93.5289 257.668 93.6186 257.821C93.7083 257.974 93.837 258.099 93.9913 258.183Z" fill="white"/>
<path fill-rule="evenodd" clip-rule="evenodd" d="M367.321 173.723L208.311 88.4334C207.783 88.1489 207.192 88 206.591 88C205.991 88 205.4 88.1489 204.871 88.4334L45.9113 173.703C45.3327 174.014 44.8494 174.477 44.5128 175.041C44.1762 175.605 43.999 176.249 44 176.906C44.001 177.563 44.1803 178.207 44.5186 178.77C44.857 179.334 45.3417 179.794 45.9213 180.103L204.771 265.263C205.297 265.544 205.885 265.691 206.481 265.691C207.078 265.691 207.665 265.544 208.191 265.263L367.321 180.123C367.9 179.813 368.384 179.352 368.722 178.788C369.059 178.225 369.238 177.58 369.238 176.923C369.238 176.267 369.059 175.622 368.722 175.058C368.384 174.495 367.9 174.033 367.321 173.723ZM218.855 121.689C218.855 129.054 212.884 135.025 205.519 135.025C198.154 135.025 192.183 129.054 192.183 121.689C192.183 114.324 198.154 108.353 205.519 108.353C212.884 108.353 218.855 114.324 218.855 121.689ZM205.163 172.871L200.88 168.576L170.126 137.689C170.064 137.626 170.016 137.552 169.984 137.47C169.952 137.389 169.937 137.302 169.94 137.214C169.943 137.127 169.963 137.04 170 136.961C170.038 136.882 170.09 136.811 170.156 136.753C175.833 131.715 185.267 130.598 191.531 135.575C192.715 136.517 193.912 137.469 195.124 138.432C199.974 142.291 206.165 143.076 212.132 141.192C212.223 141.13 212.304 141.094 212.374 141.082C214.146 140.258 215.702 139.19 217.043 137.876C221.275 133.717 225.319 129.692 229.177 125.802C229.238 125.741 229.311 125.693 229.391 125.661C229.471 125.629 229.557 125.615 229.644 125.618C229.73 125.621 229.815 125.643 229.893 125.681C229.97 125.719 230.039 125.773 230.095 125.839C233.244 129.511 234.723 133.505 234.534 137.822C234.274 143.608 231.647 147.298 227.498 151.387C221.45 157.346 215.485 163.257 209.602 169.12C208.301 170.416 207.16 171.653 206.177 172.828C206.117 172.902 206.041 172.962 205.956 173.004C205.87 173.046 205.777 173.07 205.681 173.074C205.586 173.078 205.49 173.062 205.401 173.027C205.311 172.992 205.23 172.939 205.163 172.871ZM243.829 168.449C240.761 172.544 240.538 178.844 241.975 183.591C242.893 185.778 243.751 187.279 244.548 188.097C248.804 192.45 253.165 196.836 257.63 201.258C257.685 201.311 257.728 201.375 257.757 201.445C257.786 201.515 257.8 201.591 257.8 201.667C257.799 201.743 257.784 201.818 257.753 201.888C257.723 201.957 257.679 202.02 257.624 202.073C256.332 203.293 254.78 204.269 252.968 205.002C247.689 207.136 242.758 207.003 238.176 204.604C236.328 203.637 233.801 201.517 230.596 198.244C223.985 191.491 217.331 184.839 210.635 178.288C210.545 178.2 210.475 178.095 210.426 177.979C210.378 177.863 210.354 177.739 210.354 177.614C210.355 177.488 210.381 177.364 210.43 177.249C210.479 177.133 210.551 177.029 210.641 176.941L214.844 172.895L245.623 142.062C245.671 142.014 245.728 141.976 245.791 141.95C245.854 141.925 245.921 141.912 245.989 141.913C246.057 141.915 246.125 141.929 246.187 141.957C246.25 141.984 246.307 142.024 246.354 142.074C249.756 145.701 251.25 150.153 250.836 155.428C250.462 160.115 248.175 162.972 245.619 166.163C245.03 166.898 244.427 167.652 243.829 168.449ZM196.701 182.184L201.086 178.047C201.158 177.979 201.214 177.896 201.25 177.803C201.285 177.711 201.298 177.611 201.289 177.512C201.28 177.414 201.248 177.319 201.196 177.234C201.144 177.15 201.073 177.079 200.989 177.026C200.421 176.664 199.886 176.233 199.382 175.733C192.956 169.388 186.564 163.008 180.206 156.593C179.973 156.358 179.741 156.122 179.51 155.887C177.685 154.03 175.89 152.204 173.768 151.031C168.831 148.293 163.73 147.983 158.463 150.1C157.455 150.506 156.491 151.145 155.53 151.782C155.017 152.122 154.505 152.461 153.987 152.764C153.88 152.827 153.789 152.914 153.72 153.017C153.651 153.12 153.606 153.238 153.589 153.361C153.571 153.484 153.582 153.609 153.619 153.727C153.657 153.846 153.721 153.954 153.806 154.044L169.123 170.322C170.017 173.696 170.436 176.062 170.379 177.419C170.214 181.389 168.962 184.904 166.623 187.964C165.628 189.269 164.65 190.569 163.687 191.866C159.995 196.855 159.353 202.363 161.761 208.391C162.393 209.973 163.397 211.541 164.774 213.096C164.836 213.165 164.911 213.221 164.995 213.26C165.079 213.299 165.17 213.321 165.263 213.324C165.356 213.327 165.448 213.311 165.534 213.276C165.621 213.242 165.699 213.191 165.765 213.126L196.701 182.184ZM149.826 190.507C157.251 190.507 163.27 184.487 163.27 177.062C163.27 169.637 157.251 163.618 149.826 163.618C142.401 163.618 136.381 169.637 136.381 177.062C136.381 184.487 142.401 190.507 149.826 190.507ZM275.381 177.153C275.381 184.551 269.384 190.549 261.985 190.549C254.586 190.549 248.589 184.551 248.589 177.153C248.589 169.754 254.586 163.756 261.985 163.756C269.384 163.756 275.381 169.754 275.381 177.153Z" fill="white"/>
<defs>
<linearGradient id="paint0_linear_1_47" x1="207" y1="0" x2="207" y2="414" gradientUnits="userSpaceOnUse">
<stop stop-color="#9D84FF"/>
<stop offset="1" stop-color="#603FE5"/>
</linearGradient>
</defs>
</svg>
