<svg width="326" height="239" viewBox="0 0 326 239" fill="none" xmlns="http://www.w3.org/2000/svg">
<path d="M321.541 238.306C309.921 238.486 298.031 238.416 286.691 238.436C283.571 238.436 281.731 235.076 284.031 232.726C289.057 227.62 294.257 222.416 299.631 217.116C299.909 216.841 300.131 216.512 300.282 216.15C300.433 215.788 300.511 215.399 300.511 215.006L300.481 111.926C300.474 110.18 301.264 108.94 302.851 108.206C303.251 108.02 303.667 107.96 304.101 108.026C306.274 108.373 307.361 109.646 307.361 111.846L307.331 215.176C307.331 215.811 307.582 216.422 308.031 216.876L323.821 232.666C324.278 233.127 324.591 233.712 324.719 234.348C324.848 234.985 324.787 235.645 324.544 236.246C324.301 236.847 323.887 237.363 323.353 237.73C322.819 238.096 322.188 238.297 321.541 238.306ZM295.071 231.046C295.015 231.1 294.977 231.17 294.961 231.245C294.945 231.321 294.951 231.4 294.98 231.472C295.009 231.544 295.059 231.606 295.123 231.649C295.187 231.693 295.263 231.716 295.341 231.716L312.321 231.736C312.397 231.736 312.472 231.713 312.535 231.671C312.599 231.629 312.648 231.569 312.678 231.499C312.708 231.428 312.717 231.351 312.703 231.276C312.689 231.201 312.653 231.131 312.601 231.076L304.131 222.556C304.094 222.519 304.051 222.489 304.003 222.469C303.955 222.448 303.903 222.438 303.851 222.438C303.798 222.438 303.747 222.448 303.699 222.469C303.651 222.489 303.607 222.519 303.571 222.556L295.071 231.046Z" fill="url(#paint0_linear_1_47)"/>
<path d="M50.3306 169.954L162.411 230.054C162.594 230.152 162.8 230.204 163.009 230.204C163.219 230.204 163.425 230.152 163.611 230.054L275.891 169.844C276.124 169.717 276.241 169.52 276.241 169.254C276.221 157.747 276.231 145.57 276.271 132.724C276.277 130.424 277.524 129.214 280.011 129.094C280.051 129.087 280.107 129.087 280.181 129.094C282.667 129.374 283.917 130.687 283.931 133.034C283.977 145.927 283.981 158.897 283.941 171.944C283.941 172.672 283.744 173.386 283.371 174.011C282.997 174.636 282.462 175.149 281.821 175.494C243.347 196.12 204.827 216.77 166.261 237.444C164.451 238.414 163.001 239.174 161.061 238.134C122.154 217.254 83.2339 196.37 44.3006 175.484C42.4806 174.504 41.9806 172.854 42.0006 170.904C42.1472 157.237 42.1806 144.617 42.1006 133.044C42.0706 127.864 49.7806 127.414 49.8006 133.134C49.8472 144.98 49.8539 156.964 49.8206 169.084C49.8208 169.263 49.8682 169.438 49.9579 169.591C50.0476 169.744 50.1763 169.869 50.3306 169.954Z" fill="url(#paint1_linear_1_47)"/>
<path fill-rule="evenodd" clip-rule="evenodd" d="M323.321 85.7234L164.311 0.433365C163.783 0.148902 163.192 0 162.591 0C161.991 0 161.4 0.148902 160.871 0.433365L1.91127 85.7034C1.3327 86.0144 0.84937 86.4765 0.512784 87.0406C0.176198 87.6047 -0.00102191 88.2495 4.43269e-06 88.9064C0.00103077 89.5632 0.180265 90.2075 0.518613 90.7705C0.85696 91.3335 1.34174 91.7942 1.92127 92.1034L160.771 177.263C161.297 177.544 161.885 177.691 162.481 177.691C163.078 177.691 163.665 177.544 164.191 177.263L323.321 92.1234C323.9 91.8133 324.384 91.3518 324.722 90.7883C325.059 90.2248 325.238 89.5802 325.238 88.9234C325.238 88.2665 325.059 87.622 324.722 87.0584C324.384 86.4949 323.9 86.0335 323.321 85.7234ZM174.855 33.6892C174.855 41.0545 168.884 47.0251 161.519 47.0251C154.154 47.0251 148.183 41.0545 148.183 33.6892C148.183 26.324 154.154 20.3534 161.519 20.3534C168.884 20.3534 174.855 26.324 174.855 33.6892ZM161.163 84.8705L156.88 80.5762L126.126 49.6887C126.064 49.6263 126.016 49.5521 125.984 49.4705C125.952 49.3889 125.937 49.3017 125.94 49.2141C125.943 49.1266 125.963 49.0405 126 48.9611C126.038 48.8818 126.09 48.8108 126.156 48.7525C131.833 43.7153 141.267 42.598 147.531 47.5748C148.715 48.517 149.912 49.4692 151.124 50.4316C155.974 54.291 162.165 55.0762 168.132 53.1918C168.223 53.1303 168.304 53.0936 168.374 53.0817C170.146 52.2582 171.702 51.1896 173.043 49.8759C177.275 45.7165 181.319 41.692 185.177 37.8024C185.238 37.7409 185.311 37.6927 185.391 37.661C185.471 37.6292 185.557 37.6146 185.644 37.618C185.73 37.6214 185.815 37.6428 185.893 37.6808C185.97 37.7188 186.039 37.7725 186.095 37.8386C189.244 41.5108 190.723 45.5051 190.534 49.8216C190.274 55.6077 187.647 59.298 183.498 63.387C177.45 69.3462 171.485 75.2572 165.602 81.1198C164.301 82.4164 163.16 83.6525 162.177 84.8283C162.117 84.9017 162.041 84.9615 161.956 85.0039C161.87 85.0462 161.777 85.0701 161.681 85.0741C161.586 85.0781 161.49 85.062 161.401 85.027C161.311 84.9919 161.23 84.9386 161.163 84.8705ZM199.829 80.4494C196.761 84.5444 196.538 90.8439 197.975 95.5912C198.893 97.7776 199.751 99.2795 200.548 100.097C204.804 104.45 209.165 108.836 213.63 113.258C213.685 113.311 213.728 113.375 213.757 113.445C213.786 113.515 213.8 113.591 213.8 113.667C213.799 113.743 213.784 113.818 213.753 113.888C213.723 113.957 213.679 114.02 213.624 114.073C212.332 115.293 210.78 116.269 208.968 117.002C203.689 119.136 198.758 119.003 194.176 116.604C192.328 115.637 189.801 113.517 186.596 110.244C179.985 103.491 173.331 96.8394 166.635 90.2882C166.545 90.2001 166.475 90.095 166.426 89.9791C166.378 89.8633 166.354 89.739 166.354 89.6135C166.355 89.4881 166.381 89.364 166.43 89.2486C166.479 89.1331 166.551 89.0287 166.641 88.9414L170.844 84.8947L201.623 54.0615C201.671 54.0135 201.728 53.9757 201.791 53.9502C201.854 53.9248 201.921 53.9123 201.989 53.9134C202.057 53.9145 202.125 53.9293 202.187 53.9568C202.25 53.9843 202.307 54.024 202.354 54.0736C205.756 57.7015 207.25 62.1528 206.836 67.4276C206.462 72.1151 204.175 74.9717 201.619 78.1628C201.03 78.8984 200.427 79.6517 199.829 80.4494ZM152.701 94.1839L157.086 90.0466C157.158 89.9792 157.214 89.8959 157.25 89.8033C157.285 89.7106 157.298 89.6111 157.289 89.5125C157.28 89.4138 157.248 89.3186 157.196 89.2342C157.144 89.1499 157.073 89.0786 156.989 89.0259C156.421 88.6635 155.886 88.2327 155.382 87.7334C148.956 81.3876 142.564 75.0075 136.206 68.5933C135.973 68.3581 135.741 68.1221 135.51 67.8866C133.685 66.03 131.89 64.2045 129.768 63.0306C124.831 60.2926 119.73 59.9825 114.463 62.1005C113.455 62.5059 112.491 63.1449 111.53 63.7815C111.017 64.1217 110.505 64.4612 109.987 64.764C109.88 64.8272 109.789 64.9136 109.72 65.0169C109.651 65.1202 109.606 65.2377 109.589 65.3607C109.571 65.4837 109.582 65.609 109.619 65.7274C109.657 65.8457 109.721 65.9541 109.806 66.0445L125.123 82.3217C126.017 85.696 126.436 88.0616 126.379 89.4185C126.214 93.3887 124.962 96.9038 122.623 99.964C121.628 101.269 120.65 102.569 119.687 103.866C115.995 108.855 115.353 114.363 117.761 120.391C118.393 121.973 119.397 123.541 120.774 125.096C120.836 125.165 120.911 125.221 120.995 125.26C121.079 125.299 121.17 125.321 121.263 125.324C121.356 125.327 121.448 125.311 121.534 125.276C121.621 125.242 121.699 125.191 121.765 125.126L152.701 94.1839ZM105.826 102.507C113.251 102.507 119.27 96.4874 119.27 89.0622C119.27 81.6369 113.251 75.6176 105.826 75.6176C98.4006 75.6176 92.3813 81.6369 92.3813 89.0622C92.3813 96.4874 98.4006 102.507 105.826 102.507ZM231.381 89.1528C231.381 96.5513 225.384 102.549 217.985 102.549C210.586 102.549 204.589 96.5513 204.589 89.1528C204.589 81.7542 210.586 75.7565 217.985 75.7565C225.384 75.7565 231.381 81.7542 231.381 89.1528Z" fill="url(#paint2_linear_1_47)"/>
<defs>
<linearGradient id="paint0_linear_1_47" x1="303.893" y1="108" x2="303.893" y2="238.436" gradientUnits="userSpaceOnUse">
<stop stop-color="#9D84FF"/>
<stop offset="1" stop-color="#603FE5"/>
</linearGradient>
<linearGradient id="paint1_linear_1_47" x1="162.984" y1="129" x2="162.984" y2="238.633" gradientUnits="userSpaceOnUse">
<stop stop-color="#9D84FF"/>
<stop offset="1" stop-color="#603FE5"/>
</linearGradient>
<linearGradient id="paint2_linear_1_47" x1="162.619" y1="0" x2="162.619" y2="177.691" gradientUnits="userSpaceOnUse">
<stop stop-color="#9D84FF"/>
<stop offset="1" stop-color="#603FE5"/>
</linearGradient>
</defs>
</svg>
