<svg width="16" height="17" viewBox="0 0 16 17" fill="none" xmlns="http://www.w3.org/2000/svg">
<path d="M8 11C6.62 11 5.5 9.88 5.5 8.5C5.5 7.12 6.62 6 8 6C9.38 6 10.5 7.12 10.5 8.5C10.5 9.88 9.38 11 8 11ZM8 7C7.17333 7 6.5 7.67333 6.5 8.5C6.5 9.32667 7.17333 10 8 10C8.82667 10 9.5 9.32667 9.5 8.5C9.5 7.67333 8.82667 7 8 7Z" fill="black"/>
<path d="M10.14 15.2933C9.99998 15.2933 9.85998 15.2733 9.71998 15.24C9.30665 15.1267 8.95998 14.8667 8.73998 14.5L8.65998 14.3667C8.26665 13.6867 7.72665 13.6867 7.33331 14.3667L7.25998 14.4933C7.03998 14.8667 6.69331 15.1333 6.27998 15.24C5.85998 15.3533 5.42665 15.2933 5.05998 15.0733L3.91331 14.4133C3.50665 14.18 3.21331 13.8 3.08665 13.34C2.96665 12.88 3.02665 12.4067 3.25998 12C3.45331 11.66 3.50665 11.3533 3.39331 11.16C3.27998 10.9667 2.99331 10.8533 2.59998 10.8533C1.62665 10.8533 0.833313 10.06 0.833313 9.08665V7.91332C0.833313 6.93999 1.62665 6.14665 2.59998 6.14665C2.99331 6.14665 3.27998 6.03332 3.39331 5.83999C3.50665 5.64665 3.45998 5.33999 3.25998 4.99999C3.02665 4.59332 2.96665 4.11332 3.08665 3.65999C3.20665 3.19999 3.49998 2.81999 3.91331 2.58665L5.06665 1.92665C5.81998 1.47999 6.81331 1.73999 7.26665 2.50665L7.34665 2.63999C7.73998 3.31999 8.27998 3.31999 8.67331 2.63999L8.74665 2.51332C9.19998 1.73999 10.1933 1.47999 10.9533 1.93332L12.1 2.59332C12.5066 2.82665 12.8 3.20665 12.9266 3.66665C13.0466 4.12665 12.9866 4.59999 12.7533 5.00665C12.56 5.34665 12.5066 5.65332 12.62 5.84665C12.7333 6.03999 13.02 6.15332 13.4133 6.15332C14.3866 6.15332 15.18 6.94665 15.18 7.91999V9.09332C15.18 10.0667 14.3866 10.86 13.4133 10.86C13.02 10.86 12.7333 10.9733 12.62 11.1667C12.5066 11.36 12.5533 11.6667 12.7533 12.0067C12.9866 12.4133 13.0533 12.8933 12.9266 13.3467C12.8066 13.8067 12.5133 14.1867 12.1 14.42L10.9466 15.08C10.6933 15.22 10.42 15.2933 10.14 15.2933ZM7.99998 12.8267C8.59331 12.8267 9.14665 13.2 9.52665 13.86L9.59998 13.9867C9.67998 14.1267 9.81331 14.2267 9.97331 14.2667C10.1333 14.3067 10.2933 14.2867 10.4266 14.2067L11.58 13.54C11.7533 13.44 11.8866 13.2733 11.94 13.0733C11.9933 12.8733 11.9666 12.6667 11.8666 12.4933C11.4866 11.84 11.44 11.1667 11.7333 10.6533C12.0266 10.14 12.6333 9.84665 13.3933 9.84665C13.82 9.84665 14.16 9.50665 14.16 9.07999V7.90665C14.16 7.48665 13.82 7.13999 13.3933 7.13999C12.6333 7.13999 12.0266 6.84665 11.7333 6.33332C11.44 5.81999 11.4866 5.14665 11.8666 4.49332C11.9666 4.31999 11.9933 4.11332 11.94 3.91332C11.8866 3.71332 11.76 3.55332 11.5866 3.44665L10.4333 2.78665C10.1466 2.61332 9.76665 2.71332 9.59331 3.00665L9.51998 3.13332C9.13998 3.79332 8.58665 4.16665 7.99331 4.16665C7.39998 4.16665 6.84665 3.79332 6.46665 3.13332L6.39331 2.99999C6.22665 2.71999 5.85331 2.61999 5.56665 2.78665L4.41331 3.45332C4.23998 3.55332 4.10665 3.71999 4.05331 3.91999C3.99998 4.11999 4.02665 4.32665 4.12665 4.49999C4.50665 5.15332 4.55331 5.82665 4.25998 6.33999C3.96665 6.85332 3.35998 7.14665 2.59998 7.14665C2.17331 7.14665 1.83331 7.48665 1.83331 7.91332V9.08665C1.83331 9.50665 2.17331 9.85332 2.59998 9.85332C3.35998 9.85332 3.96665 10.1467 4.25998 10.66C4.55331 11.1733 4.50665 11.8467 4.12665 12.5C4.02665 12.6733 3.99998 12.88 4.05331 13.08C4.10665 13.28 4.23331 13.44 4.40665 13.5467L5.55998 14.2067C5.69998 14.2933 5.86665 14.3133 6.01998 14.2733C6.17998 14.2333 6.31331 14.1267 6.39998 13.9867L6.47331 13.86C6.85331 13.2067 7.40665 12.8267 7.99998 12.8267Z" fill="black"/>
</svg>
