<svg width="181" height="196" viewBox="0 0 181 196" fill="none" xmlns="http://www.w3.org/2000/svg">
<path d="M-84.6459 192.121C-76.6144 192.13 -66.5087 187.688 -61.2621 181.818C-55.4958 175.366 -53.624 165.162 -53.0398 156.817C-52.696 151.906 -52.7865 145.147 -56.7545 141.494C-62.4502 136.25 -66.3693 150.331 -66.2934 153.906C-66.0615 164.839 -52.8631 165.345 -44.8761 163.761C-27.658 160.347 -14.5123 146.721 -7.54191 131.022C-4.75525 124.746 -3.39408 118.095 -4.84382 111.298C-4.92293 110.927 -5.72869 107.28 -6.90262 107.895C-11.91 110.514 -6.3575 119.384 -3.91054 121.721C4.37915 129.639 15.9379 126.933 25.263 122.43C32.298 119.033 38.33 114.534 43.3528 108.524C49.2065 101.52 56.0793 92.4756 57.5582 83.1912C57.9762 80.5674 57.925 70.84 53.2536 74.6688C49.0468 78.1166 51.1965 83.4153 53.783 87.3042C60.9211 98.0368 74.7046 101.929 85.8147 94.6682C92.8037 90.1008 97.9622 81.8423 101.817 74.6509C106.795 65.3648 109.778 55.4865 109.438 44.9024C109.342 41.9067 108.967 38.8822 108.267 35.9662C108.081 35.1889 107.119 33.0091 107.561 33.6746C109.576 36.7039 110.696 40.3085 112.778 43.3631C117.055 49.6393 123.995 54.3812 131.474 50.563C139.4 46.5168 146.488 39.4041 152.622 33.157C161.568 24.0469 169.28 13.7363 177.279 3.80494" stroke="#734AE5" stroke-width="7" stroke-linecap="round"/>
</svg>
